<mxfile host="app.diagrams.net" agent="Mozilla/5.0 (Windows NT 10.0; Win64; x64) AppleWebKit/537.36 (KHTML, like Gecko) Chrome/137.0.0.0 Safari/537.36 Edg/137.0.0.0" version="27.1.6">
  <diagram id="C5RBs43oDa-KdzZeNtuy" name="Page-1">
    <mxGraphModel dx="10794" dy="6222" grid="1" gridSize="10" guides="1" tooltips="1" connect="1" arrows="1" fold="1" page="1" pageScale="1" pageWidth="827" pageHeight="1169" math="0" shadow="0">
      <root>
        <mxCell id="WIyWlLk6GJQsqaUBKTNV-0" />
        <mxCell id="WIyWlLk6GJQsqaUBKTNV-1" parent="WIyWlLk6GJQsqaUBKTNV-0" />
        <mxCell id="AXPwxBaqXlATPKNAY8n4-325" style="edgeStyle=orthogonalEdgeStyle;rounded=0;orthogonalLoop=1;jettySize=auto;html=1;entryX=0.5;entryY=0;entryDx=0;entryDy=0;endArrow=diamondThin;endFill=0;endSize=20;curved=0;startArrow=open;startFill=0;startSize=20;" edge="1" parent="WIyWlLk6GJQsqaUBKTNV-1" source="AXPwxBaqXlATPKNAY8n4-7" target="AXPwxBaqXlATPKNAY8n4-17">
          <mxGeometry relative="1" as="geometry" />
        </mxCell>
        <mxCell id="AXPwxBaqXlATPKNAY8n4-328" style="edgeStyle=orthogonalEdgeStyle;rounded=0;orthogonalLoop=1;jettySize=auto;html=1;endArrow=diamondThin;endFill=0;endSize=20;startSize=20;startArrow=open;startFill=0;" edge="1" parent="WIyWlLk6GJQsqaUBKTNV-1" source="AXPwxBaqXlATPKNAY8n4-7" target="AXPwxBaqXlATPKNAY8n4-72">
          <mxGeometry relative="1" as="geometry" />
        </mxCell>
        <mxCell id="AXPwxBaqXlATPKNAY8n4-331" style="edgeStyle=orthogonalEdgeStyle;rounded=0;orthogonalLoop=1;jettySize=auto;html=1;dashed=1;dashPattern=8 8;endArrow=open;endFill=0;endSize=20;" edge="1" parent="WIyWlLk6GJQsqaUBKTNV-1" source="AXPwxBaqXlATPKNAY8n4-7" target="AXPwxBaqXlATPKNAY8n4-37">
          <mxGeometry relative="1" as="geometry">
            <Array as="points">
              <mxPoint x="700" y="138.68" />
            </Array>
          </mxGeometry>
        </mxCell>
        <mxCell id="AXPwxBaqXlATPKNAY8n4-333" style="edgeStyle=orthogonalEdgeStyle;rounded=0;orthogonalLoop=1;jettySize=auto;html=1;dashed=1;dashPattern=8 8;endArrow=open;endFill=0;endSize=20;" edge="1" parent="WIyWlLk6GJQsqaUBKTNV-1" source="AXPwxBaqXlATPKNAY8n4-7" target="AXPwxBaqXlATPKNAY8n4-72">
          <mxGeometry relative="1" as="geometry">
            <Array as="points">
              <mxPoint x="10" y="100.68" />
              <mxPoint x="10" y="100.68" />
            </Array>
          </mxGeometry>
        </mxCell>
        <mxCell id="AXPwxBaqXlATPKNAY8n4-335" style="edgeStyle=orthogonalEdgeStyle;rounded=0;orthogonalLoop=1;jettySize=auto;html=1;strokeColor=default;align=center;verticalAlign=middle;fontFamily=Helvetica;fontSize=11;fontColor=default;labelBackgroundColor=default;startArrow=diamondThin;startFill=0;startSize=20;endArrow=open;endSize=20;endFill=0;" edge="1" parent="WIyWlLk6GJQsqaUBKTNV-1" source="AXPwxBaqXlATPKNAY8n4-7" target="AXPwxBaqXlATPKNAY8n4-95">
          <mxGeometry relative="1" as="geometry" />
        </mxCell>
        <mxCell id="AXPwxBaqXlATPKNAY8n4-336" style="edgeStyle=orthogonalEdgeStyle;rounded=0;orthogonalLoop=1;jettySize=auto;html=1;startArrow=diamondThin;startFill=0;endSize=20;startSize=20;endArrow=open;endFill=0;" edge="1" parent="WIyWlLk6GJQsqaUBKTNV-1" source="AXPwxBaqXlATPKNAY8n4-7" target="AXPwxBaqXlATPKNAY8n4-119">
          <mxGeometry relative="1" as="geometry">
            <Array as="points">
              <mxPoint x="360" y="-119.32" />
              <mxPoint x="871" y="-119.32" />
            </Array>
          </mxGeometry>
        </mxCell>
        <mxCell id="AXPwxBaqXlATPKNAY8n4-337" style="edgeStyle=orthogonalEdgeStyle;rounded=0;orthogonalLoop=1;jettySize=auto;html=1;dashed=1;dashPattern=8 8;endArrow=open;endFill=0;endSize=20;" edge="1" parent="WIyWlLk6GJQsqaUBKTNV-1" source="AXPwxBaqXlATPKNAY8n4-7" target="AXPwxBaqXlATPKNAY8n4-17">
          <mxGeometry relative="1" as="geometry">
            <Array as="points">
              <mxPoint x="200" y="390.68" />
              <mxPoint x="200" y="390.68" />
            </Array>
          </mxGeometry>
        </mxCell>
        <mxCell id="AXPwxBaqXlATPKNAY8n4-7" value="MenuPrincipal" style="swimlane;fontStyle=1;align=center;verticalAlign=top;childLayout=stackLayout;horizontal=1;startSize=31.11111111111111;horizontalStack=0;resizeParent=1;resizeParentMax=0;resizeLast=0;collapsible=0;marginBottom=0;" vertex="1" parent="WIyWlLk6GJQsqaUBKTNV-1">
          <mxGeometry x="91" y="10.680000000000007" width="318" height="256.1111111111111" as="geometry" />
        </mxCell>
        <mxCell id="AXPwxBaqXlATPKNAY8n4-9" value="+eventos : List&lt;Evento&gt;" style="text;strokeColor=none;fillColor=none;align=left;verticalAlign=top;spacingLeft=4;spacingRight=4;overflow=hidden;rotatable=0;points=[[0,0.5],[1,0.5]];portConstraint=eastwest;" vertex="1" parent="AXPwxBaqXlATPKNAY8n4-7">
          <mxGeometry y="31.11111111111111" width="318" height="31" as="geometry" />
        </mxCell>
        <mxCell id="AXPwxBaqXlATPKNAY8n4-330" value="+asistentes : List&lt;Asistente&gt;" style="text;strokeColor=none;fillColor=none;align=left;verticalAlign=top;spacingLeft=4;spacingRight=4;overflow=hidden;rotatable=0;points=[[0,0.5],[1,0.5]];portConstraint=eastwest;" vertex="1" parent="AXPwxBaqXlATPKNAY8n4-7">
          <mxGeometry y="62.111111111111114" width="318" height="31" as="geometry" />
        </mxCell>
        <mxCell id="AXPwxBaqXlATPKNAY8n4-10" value="-tarjetaEventos : TarjetaEventos" style="text;strokeColor=none;fillColor=none;align=left;verticalAlign=top;spacingLeft=4;spacingRight=4;overflow=hidden;rotatable=0;points=[[0,0.5],[1,0.5]];portConstraint=eastwest;" vertex="1" parent="AXPwxBaqXlATPKNAY8n4-7">
          <mxGeometry y="93.11111111111111" width="318" height="31" as="geometry" />
        </mxCell>
        <mxCell id="AXPwxBaqXlATPKNAY8n4-11" style="line;strokeWidth=1;fillColor=none;align=left;verticalAlign=middle;spacingTop=-1;spacingLeft=3;spacingRight=3;rotatable=0;labelPosition=right;points=[];portConstraint=eastwest;strokeColor=inherit;" vertex="1" parent="AXPwxBaqXlATPKNAY8n4-7">
          <mxGeometry y="124.11111111111111" width="318" height="8" as="geometry" />
        </mxCell>
        <mxCell id="AXPwxBaqXlATPKNAY8n4-12" value="+MenuPrincipal()" style="text;strokeColor=none;fillColor=none;align=left;verticalAlign=top;spacingLeft=4;spacingRight=4;overflow=hidden;rotatable=0;points=[[0,0.5],[1,0.5]];portConstraint=eastwest;" vertex="1" parent="AXPwxBaqXlATPKNAY8n4-7">
          <mxGeometry y="132.11111111111111" width="318" height="31" as="geometry" />
        </mxCell>
        <mxCell id="AXPwxBaqXlATPKNAY8n4-13" value="+mostrarMenuPrincipal()" style="text;strokeColor=none;fillColor=none;align=left;verticalAlign=top;spacingLeft=4;spacingRight=4;overflow=hidden;rotatable=0;points=[[0,0.5],[1,0.5]];portConstraint=eastwest;" vertex="1" parent="AXPwxBaqXlATPKNAY8n4-7">
          <mxGeometry y="163.11111111111111" width="318" height="31" as="geometry" />
        </mxCell>
        <mxCell id="AXPwxBaqXlATPKNAY8n4-14" value="+mostrarMenuBusquedaEventos()" style="text;strokeColor=none;fillColor=none;align=left;verticalAlign=top;spacingLeft=4;spacingRight=4;overflow=hidden;rotatable=0;points=[[0,0.5],[1,0.5]];portConstraint=eastwest;" vertex="1" parent="AXPwxBaqXlATPKNAY8n4-7">
          <mxGeometry y="194.11111111111111" width="318" height="31" as="geometry" />
        </mxCell>
        <mxCell id="AXPwxBaqXlATPKNAY8n4-15" value="+mostrarMenuAdminAsistentes()" style="text;strokeColor=none;fillColor=none;align=left;verticalAlign=top;spacingLeft=4;spacingRight=4;overflow=hidden;rotatable=0;points=[[0,0.5],[1,0.5]];portConstraint=eastwest;" vertex="1" parent="AXPwxBaqXlATPKNAY8n4-7">
          <mxGeometry y="225.11111111111111" width="318" height="31" as="geometry" />
        </mxCell>
        <mxCell id="AXPwxBaqXlATPKNAY8n4-338" style="edgeStyle=orthogonalEdgeStyle;rounded=0;orthogonalLoop=1;jettySize=auto;html=1;strokeColor=default;align=center;verticalAlign=middle;fontFamily=Helvetica;fontSize=11;fontColor=default;labelBackgroundColor=default;startArrow=open;startFill=0;startSize=20;endArrow=diamondThin;endSize=20;endFill=0;" edge="1" parent="WIyWlLk6GJQsqaUBKTNV-1" source="AXPwxBaqXlATPKNAY8n4-17" target="AXPwxBaqXlATPKNAY8n4-54">
          <mxGeometry relative="1" as="geometry" />
        </mxCell>
        <mxCell id="AXPwxBaqXlATPKNAY8n4-339" style="edgeStyle=orthogonalEdgeStyle;rounded=0;orthogonalLoop=1;jettySize=auto;html=1;dashed=1;dashPattern=8 8;strokeColor=default;align=center;verticalAlign=middle;fontFamily=Helvetica;fontSize=11;fontColor=default;labelBackgroundColor=default;endArrow=open;endFill=0;endSize=20;" edge="1" parent="WIyWlLk6GJQsqaUBKTNV-1" source="AXPwxBaqXlATPKNAY8n4-17" target="AXPwxBaqXlATPKNAY8n4-54">
          <mxGeometry relative="1" as="geometry">
            <Array as="points">
              <mxPoint x="-930" y="810.6800000000001" />
            </Array>
          </mxGeometry>
        </mxCell>
        <mxCell id="AXPwxBaqXlATPKNAY8n4-340" style="edgeStyle=orthogonalEdgeStyle;rounded=0;orthogonalLoop=1;jettySize=auto;html=1;dashed=1;dashPattern=8 8;strokeColor=default;align=center;verticalAlign=middle;fontFamily=Helvetica;fontSize=11;fontColor=default;labelBackgroundColor=default;endArrow=open;endFill=0;endSize=20;" edge="1" parent="WIyWlLk6GJQsqaUBKTNV-1" source="AXPwxBaqXlATPKNAY8n4-17" target="AXPwxBaqXlATPKNAY8n4-95">
          <mxGeometry relative="1" as="geometry">
            <Array as="points">
              <mxPoint x="10" y="580.6800000000001" />
              <mxPoint x="10" y="-299.32" />
              <mxPoint x="200" y="-299.32" />
            </Array>
          </mxGeometry>
        </mxCell>
        <mxCell id="AXPwxBaqXlATPKNAY8n4-17" value="MenuAdministrarEventos" style="swimlane;fontStyle=1;align=center;verticalAlign=top;childLayout=stackLayout;horizontal=1;startSize=27.36842105263158;horizontalStack=0;resizeParent=1;resizeParentMax=0;resizeLast=0;collapsible=0;marginBottom=0;" vertex="1" parent="WIyWlLk6GJQsqaUBKTNV-1">
          <mxGeometry x="41" y="500.68" width="418" height="521.3684210526316" as="geometry" />
        </mxCell>
        <mxCell id="AXPwxBaqXlATPKNAY8n4-18" value="-menuPrincipal : MenuPrincipal" style="text;strokeColor=none;fillColor=none;align=left;verticalAlign=top;spacingLeft=4;spacingRight=4;overflow=hidden;rotatable=0;points=[[0,0.5],[1,0.5]];portConstraint=eastwest;" vertex="1" parent="AXPwxBaqXlATPKNAY8n4-17">
          <mxGeometry y="27.36842105263158" width="418" height="27" as="geometry" />
        </mxCell>
        <mxCell id="AXPwxBaqXlATPKNAY8n4-19" value="-txtBusquedaEvento : JTextField" style="text;strokeColor=none;fillColor=none;align=left;verticalAlign=top;spacingLeft=4;spacingRight=4;overflow=hidden;rotatable=0;points=[[0,0.5],[1,0.5]];portConstraint=eastwest;" vertex="1" parent="AXPwxBaqXlATPKNAY8n4-17">
          <mxGeometry y="54.368421052631575" width="418" height="27" as="geometry" />
        </mxCell>
        <mxCell id="AXPwxBaqXlATPKNAY8n4-20" value="-tablaBusqueda : DefaultTableModel" style="text;strokeColor=none;fillColor=none;align=left;verticalAlign=top;spacingLeft=4;spacingRight=4;overflow=hidden;rotatable=0;points=[[0,0.5],[1,0.5]];portConstraint=eastwest;" vertex="1" parent="AXPwxBaqXlATPKNAY8n4-17">
          <mxGeometry y="81.36842105263158" width="418" height="27" as="geometry" />
        </mxCell>
        <mxCell id="AXPwxBaqXlATPKNAY8n4-21" value="-tablaDeEventos : JTable" style="text;strokeColor=none;fillColor=none;align=left;verticalAlign=top;spacingLeft=4;spacingRight=4;overflow=hidden;rotatable=0;points=[[0,0.5],[1,0.5]];portConstraint=eastwest;" vertex="1" parent="AXPwxBaqXlATPKNAY8n4-17">
          <mxGeometry y="108.36842105263158" width="418" height="27" as="geometry" />
        </mxCell>
        <mxCell id="AXPwxBaqXlATPKNAY8n4-22" style="line;strokeWidth=1;fillColor=none;align=left;verticalAlign=middle;spacingTop=-1;spacingLeft=3;spacingRight=3;rotatable=0;labelPosition=right;points=[];portConstraint=eastwest;strokeColor=inherit;" vertex="1" parent="AXPwxBaqXlATPKNAY8n4-17">
          <mxGeometry y="135.36842105263156" width="418" height="8" as="geometry" />
        </mxCell>
        <mxCell id="AXPwxBaqXlATPKNAY8n4-23" value="+MenuAdministrarEventos(menuPrincipal : MenuPrincipal)" style="text;strokeColor=none;fillColor=none;align=left;verticalAlign=top;spacingLeft=4;spacingRight=4;overflow=hidden;rotatable=0;points=[[0,0.5],[1,0.5]];portConstraint=eastwest;" vertex="1" parent="AXPwxBaqXlATPKNAY8n4-17">
          <mxGeometry y="143.36842105263156" width="418" height="27" as="geometry" />
        </mxCell>
        <mxCell id="AXPwxBaqXlATPKNAY8n4-24" value="+crearUI()" style="text;strokeColor=none;fillColor=none;align=left;verticalAlign=top;spacingLeft=4;spacingRight=4;overflow=hidden;rotatable=0;points=[[0,0.5],[1,0.5]];portConstraint=eastwest;" vertex="1" parent="AXPwxBaqXlATPKNAY8n4-17">
          <mxGeometry y="170.36842105263156" width="418" height="27" as="geometry" />
        </mxCell>
        <mxCell id="AXPwxBaqXlATPKNAY8n4-25" value="+refrescarTablaEventos()" style="text;strokeColor=none;fillColor=none;align=left;verticalAlign=top;spacingLeft=4;spacingRight=4;overflow=hidden;rotatable=0;points=[[0,0.5],[1,0.5]];portConstraint=eastwest;" vertex="1" parent="AXPwxBaqXlATPKNAY8n4-17">
          <mxGeometry y="197.36842105263156" width="418" height="27" as="geometry" />
        </mxCell>
        <mxCell id="AXPwxBaqXlATPKNAY8n4-26" value="+volverAlMenuPrincipal()" style="text;strokeColor=none;fillColor=none;align=left;verticalAlign=top;spacingLeft=4;spacingRight=4;overflow=hidden;rotatable=0;points=[[0,0.5],[1,0.5]];portConstraint=eastwest;" vertex="1" parent="AXPwxBaqXlATPKNAY8n4-17">
          <mxGeometry y="224.36842105263156" width="418" height="27" as="geometry" />
        </mxCell>
        <mxCell id="AXPwxBaqXlATPKNAY8n4-27" value="+buscarEvento()" style="text;strokeColor=none;fillColor=none;align=left;verticalAlign=top;spacingLeft=4;spacingRight=4;overflow=hidden;rotatable=0;points=[[0,0.5],[1,0.5]];portConstraint=eastwest;" vertex="1" parent="AXPwxBaqXlATPKNAY8n4-17">
          <mxGeometry y="251.36842105263156" width="418" height="27" as="geometry" />
        </mxCell>
        <mxCell id="AXPwxBaqXlATPKNAY8n4-28" value="+buscarSubstringEnEventos()" style="text;strokeColor=none;fillColor=none;align=left;verticalAlign=top;spacingLeft=4;spacingRight=4;overflow=hidden;rotatable=0;points=[[0,0.5],[1,0.5]];portConstraint=eastwest;" vertex="1" parent="AXPwxBaqXlATPKNAY8n4-17">
          <mxGeometry y="278.36842105263156" width="418" height="27" as="geometry" />
        </mxCell>
        <mxCell id="AXPwxBaqXlATPKNAY8n4-29" value="+mostrarResultados(eventos : List&lt;Evento&gt;)" style="text;strokeColor=none;fillColor=none;align=left;verticalAlign=top;spacingLeft=4;spacingRight=4;overflow=hidden;rotatable=0;points=[[0,0.5],[1,0.5]];portConstraint=eastwest;" vertex="1" parent="AXPwxBaqXlATPKNAY8n4-17">
          <mxGeometry y="305.36842105263156" width="418" height="27" as="geometry" />
        </mxCell>
        <mxCell id="AXPwxBaqXlATPKNAY8n4-30" value="+buscarEnEventos(busqueda : String)" style="text;strokeColor=none;fillColor=none;align=left;verticalAlign=top;spacingLeft=4;spacingRight=4;overflow=hidden;rotatable=0;points=[[0,0.5],[1,0.5]];portConstraint=eastwest;" vertex="1" parent="AXPwxBaqXlATPKNAY8n4-17">
          <mxGeometry y="332.36842105263156" width="418" height="27" as="geometry" />
        </mxCell>
        <mxCell id="AXPwxBaqXlATPKNAY8n4-31" value="+getUltimoID(eventos : List&lt;Evento&gt;)" style="text;strokeColor=none;fillColor=none;align=left;verticalAlign=top;spacingLeft=4;spacingRight=4;overflow=hidden;rotatable=0;points=[[0,0.5],[1,0.5]];portConstraint=eastwest;" vertex="1" parent="AXPwxBaqXlATPKNAY8n4-17">
          <mxGeometry y="359.36842105263156" width="418" height="27" as="geometry" />
        </mxCell>
        <mxCell id="AXPwxBaqXlATPKNAY8n4-32" value="+esFechaValida(fecha : String)" style="text;strokeColor=none;fillColor=none;align=left;verticalAlign=top;spacingLeft=4;spacingRight=4;overflow=hidden;rotatable=0;points=[[0,0.5],[1,0.5]];portConstraint=eastwest;" vertex="1" parent="AXPwxBaqXlATPKNAY8n4-17">
          <mxGeometry y="386.36842105263156" width="418" height="27" as="geometry" />
        </mxCell>
        <mxCell id="AXPwxBaqXlATPKNAY8n4-33" value="+crearEvento()&#xa;" style="text;strokeColor=none;fillColor=none;align=left;verticalAlign=top;spacingLeft=4;spacingRight=4;overflow=hidden;rotatable=0;points=[[0,0.5],[1,0.5]];portConstraint=eastwest;" vertex="1" parent="AXPwxBaqXlATPKNAY8n4-17">
          <mxGeometry y="413.36842105263156" width="418" height="27" as="geometry" />
        </mxCell>
        <mxCell id="AXPwxBaqXlATPKNAY8n4-34" value="+validarFilaSeleccionada(fila : int)" style="text;strokeColor=none;fillColor=none;align=left;verticalAlign=top;spacingLeft=4;spacingRight=4;overflow=hidden;rotatable=0;points=[[0,0.5],[1,0.5]];portConstraint=eastwest;" vertex="1" parent="AXPwxBaqXlATPKNAY8n4-17">
          <mxGeometry y="440.36842105263156" width="418" height="27" as="geometry" />
        </mxCell>
        <mxCell id="AXPwxBaqXlATPKNAY8n4-35" value="+abrirMenuInvitados()" style="text;strokeColor=none;fillColor=none;align=left;verticalAlign=top;spacingLeft=4;spacingRight=4;overflow=hidden;rotatable=0;points=[[0,0.5],[1,0.5]];portConstraint=eastwest;" vertex="1" parent="AXPwxBaqXlATPKNAY8n4-17">
          <mxGeometry y="467.36842105263156" width="418" height="27" as="geometry" />
        </mxCell>
        <mxCell id="AXPwxBaqXlATPKNAY8n4-36" value="+editarEvento()" style="text;strokeColor=none;fillColor=none;align=left;verticalAlign=top;spacingLeft=4;spacingRight=4;overflow=hidden;rotatable=0;points=[[0,0.5],[1,0.5]];portConstraint=eastwest;" vertex="1" parent="AXPwxBaqXlATPKNAY8n4-17">
          <mxGeometry y="494.36842105263156" width="418" height="27" as="geometry" />
        </mxCell>
        <mxCell id="AXPwxBaqXlATPKNAY8n4-332" style="edgeStyle=orthogonalEdgeStyle;rounded=0;orthogonalLoop=1;jettySize=auto;html=1;dashed=1;dashPattern=8 8;endArrow=open;endFill=0;" edge="1" parent="WIyWlLk6GJQsqaUBKTNV-1" source="AXPwxBaqXlATPKNAY8n4-37" target="AXPwxBaqXlATPKNAY8n4-119">
          <mxGeometry relative="1" as="geometry">
            <Array as="points">
              <mxPoint x="1230" y="728.6800000000001" />
              <mxPoint x="1230" y="-829.3199999999999" />
            </Array>
          </mxGeometry>
        </mxCell>
        <mxCell id="AXPwxBaqXlATPKNAY8n4-37" value="MenuAdministrarAsistentes" style="swimlane;fontStyle=1;align=center;verticalAlign=top;childLayout=stackLayout;horizontal=1;startSize=28;horizontalStack=0;resizeParent=1;resizeParentMax=0;resizeLast=0;collapsible=0;marginBottom=0;" vertex="1" parent="WIyWlLk6GJQsqaUBKTNV-1">
          <mxGeometry x="508.5" y="500.68" width="443" height="456" as="geometry" />
        </mxCell>
        <mxCell id="AXPwxBaqXlATPKNAY8n4-38" value="-menuPrincipal : MenuPrincipal" style="text;strokeColor=none;fillColor=none;align=left;verticalAlign=top;spacingLeft=4;spacingRight=4;overflow=hidden;rotatable=0;points=[[0,0.5],[1,0.5]];portConstraint=eastwest;" vertex="1" parent="AXPwxBaqXlATPKNAY8n4-37">
          <mxGeometry y="28" width="443" height="28" as="geometry" />
        </mxCell>
        <mxCell id="AXPwxBaqXlATPKNAY8n4-39" value=" -txtBusquedaAsistente : JTextField" style="text;strokeColor=none;fillColor=none;align=left;verticalAlign=top;spacingLeft=4;spacingRight=4;overflow=hidden;rotatable=0;points=[[0,0.5],[1,0.5]];portConstraint=eastwest;" vertex="1" parent="AXPwxBaqXlATPKNAY8n4-37">
          <mxGeometry y="56" width="443" height="28" as="geometry" />
        </mxCell>
        <mxCell id="AXPwxBaqXlATPKNAY8n4-40" value="-tablaBusqueda : DefaultTableModel" style="text;strokeColor=none;fillColor=none;align=left;verticalAlign=top;spacingLeft=4;spacingRight=4;overflow=hidden;rotatable=0;points=[[0,0.5],[1,0.5]];portConstraint=eastwest;" vertex="1" parent="AXPwxBaqXlATPKNAY8n4-37">
          <mxGeometry y="84" width="443" height="28" as="geometry" />
        </mxCell>
        <mxCell id="AXPwxBaqXlATPKNAY8n4-41" value="-tablaDeAsistentes : JTable" style="text;strokeColor=none;fillColor=none;align=left;verticalAlign=top;spacingLeft=4;spacingRight=4;overflow=hidden;rotatable=0;points=[[0,0.5],[1,0.5]];portConstraint=eastwest;" vertex="1" parent="AXPwxBaqXlATPKNAY8n4-37">
          <mxGeometry y="112" width="443" height="28" as="geometry" />
        </mxCell>
        <mxCell id="AXPwxBaqXlATPKNAY8n4-42" style="line;strokeWidth=1;fillColor=none;align=left;verticalAlign=middle;spacingTop=-1;spacingLeft=3;spacingRight=3;rotatable=0;labelPosition=right;points=[];portConstraint=eastwest;strokeColor=inherit;" vertex="1" parent="AXPwxBaqXlATPKNAY8n4-37">
          <mxGeometry y="140" width="443" height="8" as="geometry" />
        </mxCell>
        <mxCell id="AXPwxBaqXlATPKNAY8n4-43" value="+MenuAdministrarAsistentes(menuPrincipal : MenuPrincipal)" style="text;strokeColor=none;fillColor=none;align=left;verticalAlign=top;spacingLeft=4;spacingRight=4;overflow=hidden;rotatable=0;points=[[0,0.5],[1,0.5]];portConstraint=eastwest;" vertex="1" parent="AXPwxBaqXlATPKNAY8n4-37">
          <mxGeometry y="148" width="443" height="28" as="geometry" />
        </mxCell>
        <mxCell id="AXPwxBaqXlATPKNAY8n4-44" value="+crearUI()" style="text;strokeColor=none;fillColor=none;align=left;verticalAlign=top;spacingLeft=4;spacingRight=4;overflow=hidden;rotatable=0;points=[[0,0.5],[1,0.5]];portConstraint=eastwest;" vertex="1" parent="AXPwxBaqXlATPKNAY8n4-37">
          <mxGeometry y="176" width="443" height="28" as="geometry" />
        </mxCell>
        <mxCell id="AXPwxBaqXlATPKNAY8n4-45" value="+volverAlMenuPrincipal()" style="text;strokeColor=none;fillColor=none;align=left;verticalAlign=top;spacingLeft=4;spacingRight=4;overflow=hidden;rotatable=0;points=[[0,0.5],[1,0.5]];portConstraint=eastwest;" vertex="1" parent="AXPwxBaqXlATPKNAY8n4-37">
          <mxGeometry y="204" width="443" height="28" as="geometry" />
        </mxCell>
        <mxCell id="AXPwxBaqXlATPKNAY8n4-46" value="+buscarAsistente()" style="text;strokeColor=none;fillColor=none;align=left;verticalAlign=top;spacingLeft=4;spacingRight=4;overflow=hidden;rotatable=0;points=[[0,0.5],[1,0.5]];portConstraint=eastwest;" vertex="1" parent="AXPwxBaqXlATPKNAY8n4-37">
          <mxGeometry y="232" width="443" height="28" as="geometry" />
        </mxCell>
        <mxCell id="AXPwxBaqXlATPKNAY8n4-47" value="+buscarSubstringEnAsistentes()" style="text;strokeColor=none;fillColor=none;align=left;verticalAlign=top;spacingLeft=4;spacingRight=4;overflow=hidden;rotatable=0;points=[[0,0.5],[1,0.5]];portConstraint=eastwest;" vertex="1" parent="AXPwxBaqXlATPKNAY8n4-37">
          <mxGeometry y="260" width="443" height="28" as="geometry" />
        </mxCell>
        <mxCell id="AXPwxBaqXlATPKNAY8n4-48" value="+mostrarResultados(asistentes: List&lt;Asistente&gt;)" style="text;strokeColor=none;fillColor=none;align=left;verticalAlign=top;spacingLeft=4;spacingRight=4;overflow=hidden;rotatable=0;points=[[0,0.5],[1,0.5]];portConstraint=eastwest;" vertex="1" parent="AXPwxBaqXlATPKNAY8n4-37">
          <mxGeometry y="288" width="443" height="28" as="geometry" />
        </mxCell>
        <mxCell id="AXPwxBaqXlATPKNAY8n4-49" value="+buscarEnAsistentes(busqueda : String)" style="text;strokeColor=none;fillColor=none;align=left;verticalAlign=top;spacingLeft=4;spacingRight=4;overflow=hidden;rotatable=0;points=[[0,0.5],[1,0.5]];portConstraint=eastwest;" vertex="1" parent="AXPwxBaqXlATPKNAY8n4-37">
          <mxGeometry y="316" width="443" height="28" as="geometry" />
        </mxCell>
        <mxCell id="AXPwxBaqXlATPKNAY8n4-50" value="+refrescarTablaAsistentes()" style="text;strokeColor=none;fillColor=none;align=left;verticalAlign=top;spacingLeft=4;spacingRight=4;overflow=hidden;rotatable=0;points=[[0,0.5],[1,0.5]];portConstraint=eastwest;" vertex="1" parent="AXPwxBaqXlATPKNAY8n4-37">
          <mxGeometry y="344" width="443" height="28" as="geometry" />
        </mxCell>
        <mxCell id="AXPwxBaqXlATPKNAY8n4-51" value="+getUltimoID(asistentes : &lt;List&gt; Asistente)" style="text;strokeColor=none;fillColor=none;align=left;verticalAlign=top;spacingLeft=4;spacingRight=4;overflow=hidden;rotatable=0;points=[[0,0.5],[1,0.5]];portConstraint=eastwest;" vertex="1" parent="AXPwxBaqXlATPKNAY8n4-37">
          <mxGeometry y="372" width="443" height="28" as="geometry" />
        </mxCell>
        <mxCell id="AXPwxBaqXlATPKNAY8n4-52" value="+crearAsistente()" style="text;strokeColor=none;fillColor=none;align=left;verticalAlign=top;spacingLeft=4;spacingRight=4;overflow=hidden;rotatable=0;points=[[0,0.5],[1,0.5]];portConstraint=eastwest;" vertex="1" parent="AXPwxBaqXlATPKNAY8n4-37">
          <mxGeometry y="400" width="443" height="28" as="geometry" />
        </mxCell>
        <mxCell id="AXPwxBaqXlATPKNAY8n4-53" value="+editarAsistente()" style="text;strokeColor=none;fillColor=none;align=left;verticalAlign=top;spacingLeft=4;spacingRight=4;overflow=hidden;rotatable=0;points=[[0,0.5],[1,0.5]];portConstraint=eastwest;" vertex="1" parent="AXPwxBaqXlATPKNAY8n4-37">
          <mxGeometry y="428" width="443" height="28" as="geometry" />
        </mxCell>
        <mxCell id="AXPwxBaqXlATPKNAY8n4-334" style="edgeStyle=orthogonalEdgeStyle;rounded=0;orthogonalLoop=1;jettySize=auto;html=1;dashed=1;dashPattern=8 8;endArrow=open;endFill=0;endSize=20;" edge="1" parent="WIyWlLk6GJQsqaUBKTNV-1" source="AXPwxBaqXlATPKNAY8n4-54" target="AXPwxBaqXlATPKNAY8n4-72">
          <mxGeometry relative="1" as="geometry">
            <Array as="points">
              <mxPoint x="-440" y="50.68000000000001" />
              <mxPoint x="-440" y="50.68000000000001" />
            </Array>
          </mxGeometry>
        </mxCell>
        <mxCell id="AXPwxBaqXlATPKNAY8n4-341" style="edgeStyle=orthogonalEdgeStyle;rounded=0;orthogonalLoop=1;jettySize=auto;html=1;strokeColor=default;align=center;verticalAlign=middle;fontFamily=Helvetica;fontSize=11;fontColor=default;labelBackgroundColor=default;startArrow=diamondThin;startFill=0;startSize=20;endArrow=open;endFill=0;endSize=20;" edge="1" parent="WIyWlLk6GJQsqaUBKTNV-1" source="AXPwxBaqXlATPKNAY8n4-54" target="AXPwxBaqXlATPKNAY8n4-119">
          <mxGeometry relative="1" as="geometry">
            <Array as="points">
              <mxPoint x="-885" y="-369.32" />
              <mxPoint x="1000" y="-369.32" />
            </Array>
          </mxGeometry>
        </mxCell>
        <mxCell id="AXPwxBaqXlATPKNAY8n4-54" value="MenuAdministrarInvitados" style="swimlane;fontStyle=1;align=center;verticalAlign=top;childLayout=stackLayout;horizontal=1;startSize=27.764705882352942;horizontalStack=0;resizeParent=1;resizeParentMax=0;resizeLast=0;collapsible=0;marginBottom=0;" vertex="1" parent="WIyWlLk6GJQsqaUBKTNV-1">
          <mxGeometry x="-1260" y="-109.32" width="750" height="483.7647058823529" as="geometry" />
        </mxCell>
        <mxCell id="AXPwxBaqXlATPKNAY8n4-55" value="-asistentesDisponibles : DefaultListModel&lt;String&gt;" style="text;strokeColor=none;fillColor=none;align=left;verticalAlign=top;spacingLeft=4;spacingRight=4;overflow=hidden;rotatable=0;points=[[0,0.5],[1,0.5]];portConstraint=eastwest;" vertex="1" parent="AXPwxBaqXlATPKNAY8n4-54">
          <mxGeometry y="27.764705882352942" width="750" height="28" as="geometry" />
        </mxCell>
        <mxCell id="AXPwxBaqXlATPKNAY8n4-56" value="-asistentesAsignados : DefaultListModel&lt;String&gt;" style="text;strokeColor=none;fillColor=none;align=left;verticalAlign=top;spacingLeft=4;spacingRight=4;overflow=hidden;rotatable=0;points=[[0,0.5],[1,0.5]];portConstraint=eastwest;" vertex="1" parent="AXPwxBaqXlATPKNAY8n4-54">
          <mxGeometry y="55.76470588235294" width="750" height="28" as="geometry" />
        </mxCell>
        <mxCell id="AXPwxBaqXlATPKNAY8n4-57" value="-listaAsistentesDisponibles : JList&lt;String&gt;" style="text;strokeColor=none;fillColor=none;align=left;verticalAlign=top;spacingLeft=4;spacingRight=4;overflow=hidden;rotatable=0;points=[[0,0.5],[1,0.5]];portConstraint=eastwest;" vertex="1" parent="AXPwxBaqXlATPKNAY8n4-54">
          <mxGeometry y="83.76470588235294" width="750" height="28" as="geometry" />
        </mxCell>
        <mxCell id="AXPwxBaqXlATPKNAY8n4-58" value="-listaInvitados : JList&lt;String&gt;" style="text;strokeColor=none;fillColor=none;align=left;verticalAlign=top;spacingLeft=4;spacingRight=4;overflow=hidden;rotatable=0;points=[[0,0.5],[1,0.5]];portConstraint=eastwest;" vertex="1" parent="AXPwxBaqXlATPKNAY8n4-54">
          <mxGeometry y="111.76470588235294" width="750" height="28" as="geometry" />
        </mxCell>
        <mxCell id="AXPwxBaqXlATPKNAY8n4-59" value="-asistentes : List&lt;Asistente&gt;" style="text;strokeColor=none;fillColor=none;align=left;verticalAlign=top;spacingLeft=4;spacingRight=4;overflow=hidden;rotatable=0;points=[[0,0.5],[1,0.5]];portConstraint=eastwest;" vertex="1" parent="AXPwxBaqXlATPKNAY8n4-54">
          <mxGeometry y="139.76470588235293" width="750" height="28" as="geometry" />
        </mxCell>
        <mxCell id="AXPwxBaqXlATPKNAY8n4-60" value="-todasLasInvitaciones : Map&lt;Evento, Set&lt;Asistente&gt;&gt;" style="text;strokeColor=none;fillColor=none;align=left;verticalAlign=top;spacingLeft=4;spacingRight=4;overflow=hidden;rotatable=0;points=[[0,0.5],[1,0.5]];portConstraint=eastwest;" vertex="1" parent="AXPwxBaqXlATPKNAY8n4-54">
          <mxGeometry y="167.76470588235293" width="750" height="28" as="geometry" />
        </mxCell>
        <mxCell id="AXPwxBaqXlATPKNAY8n4-61" value="-invitadosAlEventoActual : Set&lt;Asistente&gt;" style="text;strokeColor=none;fillColor=none;align=left;verticalAlign=top;spacingLeft=4;spacingRight=4;overflow=hidden;rotatable=0;points=[[0,0.5],[1,0.5]];portConstraint=eastwest;" vertex="1" parent="AXPwxBaqXlATPKNAY8n4-54">
          <mxGeometry y="195.76470588235293" width="750" height="28" as="geometry" />
        </mxCell>
        <mxCell id="AXPwxBaqXlATPKNAY8n4-62" value="-opcionAsistentes : Map&lt;String, Asistente&gt;" style="text;strokeColor=none;fillColor=none;align=left;verticalAlign=top;spacingLeft=4;spacingRight=4;overflow=hidden;rotatable=0;points=[[0,0.5],[1,0.5]];portConstraint=eastwest;" vertex="1" parent="AXPwxBaqXlATPKNAY8n4-54">
          <mxGeometry y="223.76470588235293" width="750" height="28" as="geometry" />
        </mxCell>
        <mxCell id="AXPwxBaqXlATPKNAY8n4-63" value="-menuAdministrarEventos : MenuAdministrarEventos " style="text;strokeColor=none;fillColor=none;align=left;verticalAlign=top;spacingLeft=4;spacingRight=4;overflow=hidden;rotatable=0;points=[[0,0.5],[1,0.5]];portConstraint=eastwest;" vertex="1" parent="AXPwxBaqXlATPKNAY8n4-54">
          <mxGeometry y="251.76470588235293" width="750" height="28" as="geometry" />
        </mxCell>
        <mxCell id="AXPwxBaqXlATPKNAY8n4-64" style="line;strokeWidth=1;fillColor=none;align=left;verticalAlign=middle;spacingTop=-1;spacingLeft=3;spacingRight=3;rotatable=0;labelPosition=right;points=[];portConstraint=eastwest;strokeColor=inherit;" vertex="1" parent="AXPwxBaqXlATPKNAY8n4-54">
          <mxGeometry y="279.7647058823529" width="750" height="8" as="geometry" />
        </mxCell>
        <mxCell id="AXPwxBaqXlATPKNAY8n4-65" value="+MenuAdministrarInvitados(evento : Evento, asistentes: List&lt;Asistente&gt;,menuAdministrarEventos : MenuAdministrarEventos)" style="text;strokeColor=none;fillColor=none;align=left;verticalAlign=top;spacingLeft=4;spacingRight=4;overflow=hidden;rotatable=0;points=[[0,0.5],[1,0.5]];portConstraint=eastwest;" vertex="1" parent="AXPwxBaqXlATPKNAY8n4-54">
          <mxGeometry y="287.7647058823529" width="750" height="28" as="geometry" />
        </mxCell>
        <mxCell id="AXPwxBaqXlATPKNAY8n4-66" value="+crearUI(evento: Evento)" style="text;strokeColor=none;fillColor=none;align=left;verticalAlign=top;spacingLeft=4;spacingRight=4;overflow=hidden;rotatable=0;points=[[0,0.5],[1,0.5]];portConstraint=eastwest;" vertex="1" parent="AXPwxBaqXlATPKNAY8n4-54">
          <mxGeometry y="315.7647058823529" width="750" height="28" as="geometry" />
        </mxCell>
        <mxCell id="AXPwxBaqXlATPKNAY8n4-67" value="+guardarAsistentes(evento : Evento)" style="text;strokeColor=none;fillColor=none;align=left;verticalAlign=top;spacingLeft=4;spacingRight=4;overflow=hidden;rotatable=0;points=[[0,0.5],[1,0.5]];portConstraint=eastwest;" vertex="1" parent="AXPwxBaqXlATPKNAY8n4-54">
          <mxGeometry y="343.7647058823529" width="750" height="28" as="geometry" />
        </mxCell>
        <mxCell id="AXPwxBaqXlATPKNAY8n4-68" value="+volverMenuAnterior()" style="text;strokeColor=none;fillColor=none;align=left;verticalAlign=top;spacingLeft=4;spacingRight=4;overflow=hidden;rotatable=0;points=[[0,0.5],[1,0.5]];portConstraint=eastwest;" vertex="1" parent="AXPwxBaqXlATPKNAY8n4-54">
          <mxGeometry y="371.7647058823529" width="750" height="28" as="geometry" />
        </mxCell>
        <mxCell id="AXPwxBaqXlATPKNAY8n4-69" value="+agregarInvitado()" style="text;strokeColor=none;fillColor=none;align=left;verticalAlign=top;spacingLeft=4;spacingRight=4;overflow=hidden;rotatable=0;points=[[0,0.5],[1,0.5]];portConstraint=eastwest;" vertex="1" parent="AXPwxBaqXlATPKNAY8n4-54">
          <mxGeometry y="399.7647058823529" width="750" height="28" as="geometry" />
        </mxCell>
        <mxCell id="AXPwxBaqXlATPKNAY8n4-70" value="+eliminarInvitado()" style="text;strokeColor=none;fillColor=none;align=left;verticalAlign=top;spacingLeft=4;spacingRight=4;overflow=hidden;rotatable=0;points=[[0,0.5],[1,0.5]];portConstraint=eastwest;" vertex="1" parent="AXPwxBaqXlATPKNAY8n4-54">
          <mxGeometry y="427.7647058823529" width="750" height="28" as="geometry" />
        </mxCell>
        <mxCell id="AXPwxBaqXlATPKNAY8n4-71" value="+poblarListasAsistentes(invitados : Set&lt;Asistente&gt;)" style="text;strokeColor=none;fillColor=none;align=left;verticalAlign=top;spacingLeft=4;spacingRight=4;overflow=hidden;rotatable=0;points=[[0,0.5],[1,0.5]];portConstraint=eastwest;" vertex="1" parent="AXPwxBaqXlATPKNAY8n4-54">
          <mxGeometry y="455.7647058823529" width="750" height="28" as="geometry" />
        </mxCell>
        <mxCell id="AXPwxBaqXlATPKNAY8n4-72" value="TarjetaEventos" style="swimlane;fontStyle=1;align=center;verticalAlign=top;childLayout=stackLayout;horizontal=1;startSize=29.333333333333332;horizontalStack=0;resizeParent=1;resizeParentMax=0;resizeLast=0;collapsible=0;marginBottom=0;" vertex="1" parent="WIyWlLk6GJQsqaUBKTNV-1">
          <mxGeometry x="-360" y="33.06999999999999" width="282" height="211.33333333333331" as="geometry" />
        </mxCell>
        <mxCell id="AXPwxBaqXlATPKNAY8n4-73" value="-cardActual : int" style="text;strokeColor=none;fillColor=none;align=left;verticalAlign=top;spacingLeft=4;spacingRight=4;overflow=hidden;rotatable=0;points=[[0,0.5],[1,0.5]];portConstraint=eastwest;" vertex="1" parent="AXPwxBaqXlATPKNAY8n4-72">
          <mxGeometry y="29.333333333333332" width="282" height="29" as="geometry" />
        </mxCell>
        <mxCell id="AXPwxBaqXlATPKNAY8n4-74" value="-numeroDeEventos : int " style="text;strokeColor=none;fillColor=none;align=left;verticalAlign=top;spacingLeft=4;spacingRight=4;overflow=hidden;rotatable=0;points=[[0,0.5],[1,0.5]];portConstraint=eastwest;" vertex="1" parent="AXPwxBaqXlATPKNAY8n4-72">
          <mxGeometry y="58.33333333333333" width="282" height="29" as="geometry" />
        </mxCell>
        <mxCell id="AXPwxBaqXlATPKNAY8n4-79" value="-cardPanel : JPanel" style="text;strokeColor=none;fillColor=none;align=left;verticalAlign=top;spacingLeft=4;spacingRight=4;overflow=hidden;rotatable=0;points=[[0,0.5],[1,0.5]];portConstraint=eastwest;" vertex="1" parent="AXPwxBaqXlATPKNAY8n4-72">
          <mxGeometry y="87.33333333333333" width="282" height="29" as="geometry" />
        </mxCell>
        <mxCell id="AXPwxBaqXlATPKNAY8n4-81" style="line;strokeWidth=1;fillColor=none;align=left;verticalAlign=middle;spacingTop=-1;spacingLeft=3;spacingRight=3;rotatable=0;labelPosition=right;points=[];portConstraint=eastwest;strokeColor=inherit;" vertex="1" parent="AXPwxBaqXlATPKNAY8n4-72">
          <mxGeometry y="116.33333333333333" width="282" height="8" as="geometry" />
        </mxCell>
        <mxCell id="AXPwxBaqXlATPKNAY8n4-82" value="+TarjetaEventos()" style="text;strokeColor=none;fillColor=none;align=left;verticalAlign=top;spacingLeft=4;spacingRight=4;overflow=hidden;rotatable=0;points=[[0,0.5],[1,0.5]];portConstraint=eastwest;" vertex="1" parent="AXPwxBaqXlATPKNAY8n4-72">
          <mxGeometry y="124.33333333333333" width="282" height="29" as="geometry" />
        </mxCell>
        <mxCell id="AXPwxBaqXlATPKNAY8n4-83" value="+crearTarjeta(evento : Evento)" style="text;strokeColor=none;fillColor=none;align=left;verticalAlign=top;spacingLeft=4;spacingRight=4;overflow=hidden;rotatable=0;points=[[0,0.5],[1,0.5]];portConstraint=eastwest;" vertex="1" parent="AXPwxBaqXlATPKNAY8n4-72">
          <mxGeometry y="153.33333333333331" width="282" height="29" as="geometry" />
        </mxCell>
        <mxCell id="AXPwxBaqXlATPKNAY8n4-84" value="+ crearTarjetas(eventos : List&lt;Evento&gt;)" style="text;strokeColor=none;fillColor=none;align=left;verticalAlign=top;spacingLeft=4;spacingRight=4;overflow=hidden;rotatable=0;points=[[0,0.5],[1,0.5]];portConstraint=eastwest;" vertex="1" parent="AXPwxBaqXlATPKNAY8n4-72">
          <mxGeometry y="182.33333333333331" width="282" height="29" as="geometry" />
        </mxCell>
        <mxCell id="AXPwxBaqXlATPKNAY8n4-85" value="ModelosManager" style="swimlane;fontStyle=1;align=center;verticalAlign=top;childLayout=stackLayout;horizontal=1;startSize=30.105263157894736;horizontalStack=0;resizeParent=1;resizeParentMax=0;resizeLast=0;collapsible=0;marginBottom=0;" vertex="1" parent="WIyWlLk6GJQsqaUBKTNV-1">
          <mxGeometry x="-650" y="-709.3199999999999" width="417" height="248.10526315789474" as="geometry" />
        </mxCell>
        <mxCell id="AXPwxBaqXlATPKNAY8n4-86" style="line;strokeWidth=1;fillColor=none;align=left;verticalAlign=middle;spacingTop=-1;spacingLeft=3;spacingRight=3;rotatable=0;labelPosition=right;points=[];portConstraint=eastwest;strokeColor=inherit;" vertex="1" parent="AXPwxBaqXlATPKNAY8n4-85">
          <mxGeometry y="30.105263157894736" width="417" height="8" as="geometry" />
        </mxCell>
        <mxCell id="AXPwxBaqXlATPKNAY8n4-87" value="+cargarEventos()" style="text;strokeColor=none;fillColor=none;align=left;verticalAlign=top;spacingLeft=4;spacingRight=4;overflow=hidden;rotatable=0;points=[[0,0.5],[1,0.5]];portConstraint=eastwest;" vertex="1" parent="AXPwxBaqXlATPKNAY8n4-85">
          <mxGeometry y="38.10526315789474" width="417" height="30" as="geometry" />
        </mxCell>
        <mxCell id="AXPwxBaqXlATPKNAY8n4-88" value="+cargarAsistentes()" style="text;strokeColor=none;fillColor=none;align=left;verticalAlign=top;spacingLeft=4;spacingRight=4;overflow=hidden;rotatable=0;points=[[0,0.5],[1,0.5]];portConstraint=eastwest;" vertex="1" parent="AXPwxBaqXlATPKNAY8n4-85">
          <mxGeometry y="68.10526315789474" width="417" height="30" as="geometry" />
        </mxCell>
        <mxCell id="AXPwxBaqXlATPKNAY8n4-90" value="+guardarAsistentes(asistentes : List&lt;Asistente&gt;)" style="text;strokeColor=none;fillColor=none;align=left;verticalAlign=top;spacingLeft=4;spacingRight=4;overflow=hidden;rotatable=0;points=[[0,0.5],[1,0.5]];portConstraint=eastwest;" vertex="1" parent="AXPwxBaqXlATPKNAY8n4-85">
          <mxGeometry y="98.10526315789474" width="417" height="30" as="geometry" />
        </mxCell>
        <mxCell id="AXPwxBaqXlATPKNAY8n4-91" value="+guardarEventos(eventos : List&lt;Evento&gt;)" style="text;strokeColor=none;fillColor=none;align=left;verticalAlign=top;spacingLeft=4;spacingRight=4;overflow=hidden;rotatable=0;points=[[0,0.5],[1,0.5]];portConstraint=eastwest;" vertex="1" parent="AXPwxBaqXlATPKNAY8n4-85">
          <mxGeometry y="128.10526315789474" width="417" height="30" as="geometry" />
        </mxCell>
        <mxCell id="AXPwxBaqXlATPKNAY8n4-92" value="+cargarEventosFuturosOrdenados(eventos : List&lt;Evento&gt;)" style="text;strokeColor=none;fillColor=none;align=left;verticalAlign=top;spacingLeft=4;spacingRight=4;overflow=hidden;rotatable=0;points=[[0,0.5],[1,0.5]];portConstraint=eastwest;" vertex="1" parent="AXPwxBaqXlATPKNAY8n4-85">
          <mxGeometry y="158.10526315789474" width="417" height="30" as="geometry" />
        </mxCell>
        <mxCell id="AXPwxBaqXlATPKNAY8n4-93" value="+leerInvitaciones()" style="text;strokeColor=none;fillColor=none;align=left;verticalAlign=top;spacingLeft=4;spacingRight=4;overflow=hidden;rotatable=0;points=[[0,0.5],[1,0.5]];portConstraint=eastwest;" vertex="1" parent="AXPwxBaqXlATPKNAY8n4-85">
          <mxGeometry y="188.10526315789474" width="417" height="30" as="geometry" />
        </mxCell>
        <mxCell id="AXPwxBaqXlATPKNAY8n4-94" value="+guardarAsistentesAEventos(invitaciones : Map&lt;Evento, Set&lt;Asistente&gt;&gt;)" style="text;strokeColor=none;fillColor=none;align=left;verticalAlign=top;spacingLeft=4;spacingRight=4;overflow=hidden;rotatable=0;points=[[0,0.5],[1,0.5]];portConstraint=eastwest;" vertex="1" parent="AXPwxBaqXlATPKNAY8n4-85">
          <mxGeometry y="218.10526315789474" width="417" height="30" as="geometry" />
        </mxCell>
        <mxCell id="AXPwxBaqXlATPKNAY8n4-95" value="Evento" style="swimlane;fontStyle=1;align=center;verticalAlign=top;childLayout=stackLayout;horizontal=1;startSize=26.782608695652176;horizontalStack=0;resizeParent=1;resizeParentMax=0;resizeLast=0;collapsible=0;marginBottom=0;" vertex="1" parent="WIyWlLk6GJQsqaUBKTNV-1">
          <mxGeometry x="41" y="-1090" width="580" height="628.7826086956522" as="geometry" />
        </mxCell>
        <mxCell id="AXPwxBaqXlATPKNAY8n4-96" value="-id : int" style="text;strokeColor=none;fillColor=none;align=left;verticalAlign=top;spacingLeft=4;spacingRight=4;overflow=hidden;rotatable=0;points=[[0,0.5],[1,0.5]];portConstraint=eastwest;" vertex="1" parent="AXPwxBaqXlATPKNAY8n4-95">
          <mxGeometry y="26.782608695652176" width="580" height="27" as="geometry" />
        </mxCell>
        <mxCell id="AXPwxBaqXlATPKNAY8n4-97" value="-nombre : String " style="text;strokeColor=none;fillColor=none;align=left;verticalAlign=top;spacingLeft=4;spacingRight=4;overflow=hidden;rotatable=0;points=[[0,0.5],[1,0.5]];portConstraint=eastwest;" vertex="1" parent="AXPwxBaqXlATPKNAY8n4-95">
          <mxGeometry y="53.78260869565217" width="580" height="27" as="geometry" />
        </mxCell>
        <mxCell id="AXPwxBaqXlATPKNAY8n4-98" value="-descripcion : String " style="text;strokeColor=none;fillColor=none;align=left;verticalAlign=top;spacingLeft=4;spacingRight=4;overflow=hidden;rotatable=0;points=[[0,0.5],[1,0.5]];portConstraint=eastwest;" vertex="1" parent="AXPwxBaqXlATPKNAY8n4-95">
          <mxGeometry y="80.78260869565217" width="580" height="27" as="geometry" />
        </mxCell>
        <mxCell id="AXPwxBaqXlATPKNAY8n4-99" value="-asistentes: int " style="text;strokeColor=none;fillColor=none;align=left;verticalAlign=top;spacingLeft=4;spacingRight=4;overflow=hidden;rotatable=0;points=[[0,0.5],[1,0.5]];portConstraint=eastwest;" vertex="1" parent="AXPwxBaqXlATPKNAY8n4-95">
          <mxGeometry y="107.78260869565217" width="580" height="27" as="geometry" />
        </mxCell>
        <mxCell id="AXPwxBaqXlATPKNAY8n4-100" value="-ubicacion : String " style="text;strokeColor=none;fillColor=none;align=left;verticalAlign=top;spacingLeft=4;spacingRight=4;overflow=hidden;rotatable=0;points=[[0,0.5],[1,0.5]];portConstraint=eastwest;" vertex="1" parent="AXPwxBaqXlATPKNAY8n4-95">
          <mxGeometry y="134.7826086956522" width="580" height="27" as="geometry" />
        </mxCell>
        <mxCell id="AXPwxBaqXlATPKNAY8n4-101" value="-fecha : LocalDate" style="text;strokeColor=none;fillColor=none;align=left;verticalAlign=top;spacingLeft=4;spacingRight=4;overflow=hidden;rotatable=0;points=[[0,0.5],[1,0.5]];portConstraint=eastwest;" vertex="1" parent="AXPwxBaqXlATPKNAY8n4-95">
          <mxGeometry y="161.7826086956522" width="580" height="27" as="geometry" />
        </mxCell>
        <mxCell id="AXPwxBaqXlATPKNAY8n4-102" style="line;strokeWidth=1;fillColor=none;align=left;verticalAlign=middle;spacingTop=-1;spacingLeft=3;spacingRight=3;rotatable=0;labelPosition=right;points=[];portConstraint=eastwest;strokeColor=inherit;" vertex="1" parent="AXPwxBaqXlATPKNAY8n4-95">
          <mxGeometry y="188.7826086956522" width="580" height="8" as="geometry" />
        </mxCell>
        <mxCell id="AXPwxBaqXlATPKNAY8n4-103" value="+Evento(id : int, nombre : String, descripcion : String, asistentes : int, ubicacion : String, fecha : LocalDate)" style="text;strokeColor=none;fillColor=none;align=left;verticalAlign=top;spacingLeft=4;spacingRight=4;overflow=hidden;rotatable=0;points=[[0,0.5],[1,0.5]];portConstraint=eastwest;" vertex="1" parent="AXPwxBaqXlATPKNAY8n4-95">
          <mxGeometry y="196.7826086956522" width="580" height="27" as="geometry" />
        </mxCell>
        <mxCell id="AXPwxBaqXlATPKNAY8n4-104" value="+getId()" style="text;strokeColor=none;fillColor=none;align=left;verticalAlign=top;spacingLeft=4;spacingRight=4;overflow=hidden;rotatable=0;points=[[0,0.5],[1,0.5]];portConstraint=eastwest;" vertex="1" parent="AXPwxBaqXlATPKNAY8n4-95">
          <mxGeometry y="223.7826086956522" width="580" height="27" as="geometry" />
        </mxCell>
        <mxCell id="AXPwxBaqXlATPKNAY8n4-105" value="+getNombre()" style="text;strokeColor=none;fillColor=none;align=left;verticalAlign=top;spacingLeft=4;spacingRight=4;overflow=hidden;rotatable=0;points=[[0,0.5],[1,0.5]];portConstraint=eastwest;" vertex="1" parent="AXPwxBaqXlATPKNAY8n4-95">
          <mxGeometry y="250.7826086956522" width="580" height="27" as="geometry" />
        </mxCell>
        <mxCell id="AXPwxBaqXlATPKNAY8n4-106" value="+getDescripcion()" style="text;strokeColor=none;fillColor=none;align=left;verticalAlign=top;spacingLeft=4;spacingRight=4;overflow=hidden;rotatable=0;points=[[0,0.5],[1,0.5]];portConstraint=eastwest;" vertex="1" parent="AXPwxBaqXlATPKNAY8n4-95">
          <mxGeometry y="277.7826086956522" width="580" height="27" as="geometry" />
        </mxCell>
        <mxCell id="AXPwxBaqXlATPKNAY8n4-107" value="+getAsistentes()" style="text;strokeColor=none;fillColor=none;align=left;verticalAlign=top;spacingLeft=4;spacingRight=4;overflow=hidden;rotatable=0;points=[[0,0.5],[1,0.5]];portConstraint=eastwest;" vertex="1" parent="AXPwxBaqXlATPKNAY8n4-95">
          <mxGeometry y="304.7826086956522" width="580" height="27" as="geometry" />
        </mxCell>
        <mxCell id="AXPwxBaqXlATPKNAY8n4-108" value="+getUbicacion()" style="text;strokeColor=none;fillColor=none;align=left;verticalAlign=top;spacingLeft=4;spacingRight=4;overflow=hidden;rotatable=0;points=[[0,0.5],[1,0.5]];portConstraint=eastwest;" vertex="1" parent="AXPwxBaqXlATPKNAY8n4-95">
          <mxGeometry y="331.7826086956522" width="580" height="27" as="geometry" />
        </mxCell>
        <mxCell id="AXPwxBaqXlATPKNAY8n4-109" value="+getFecha()" style="text;strokeColor=none;fillColor=none;align=left;verticalAlign=top;spacingLeft=4;spacingRight=4;overflow=hidden;rotatable=0;points=[[0,0.5],[1,0.5]];portConstraint=eastwest;" vertex="1" parent="AXPwxBaqXlATPKNAY8n4-95">
          <mxGeometry y="358.7826086956522" width="580" height="27" as="geometry" />
        </mxCell>
        <mxCell id="AXPwxBaqXlATPKNAY8n4-110" value="+setId(id : int)" style="text;strokeColor=none;fillColor=none;align=left;verticalAlign=top;spacingLeft=4;spacingRight=4;overflow=hidden;rotatable=0;points=[[0,0.5],[1,0.5]];portConstraint=eastwest;" vertex="1" parent="AXPwxBaqXlATPKNAY8n4-95">
          <mxGeometry y="385.7826086956522" width="580" height="27" as="geometry" />
        </mxCell>
        <mxCell id="AXPwxBaqXlATPKNAY8n4-111" value="+setNombre(nombre : String)" style="text;strokeColor=none;fillColor=none;align=left;verticalAlign=top;spacingLeft=4;spacingRight=4;overflow=hidden;rotatable=0;points=[[0,0.5],[1,0.5]];portConstraint=eastwest;" vertex="1" parent="AXPwxBaqXlATPKNAY8n4-95">
          <mxGeometry y="412.7826086956522" width="580" height="27" as="geometry" />
        </mxCell>
        <mxCell id="AXPwxBaqXlATPKNAY8n4-112" value="+setDescripcion(descripcion : String)" style="text;strokeColor=none;fillColor=none;align=left;verticalAlign=top;spacingLeft=4;spacingRight=4;overflow=hidden;rotatable=0;points=[[0,0.5],[1,0.5]];portConstraint=eastwest;" vertex="1" parent="AXPwxBaqXlATPKNAY8n4-95">
          <mxGeometry y="439.7826086956522" width="580" height="27" as="geometry" />
        </mxCell>
        <mxCell id="AXPwxBaqXlATPKNAY8n4-113" value="+setAsistentes(asistentes : int)" style="text;strokeColor=none;fillColor=none;align=left;verticalAlign=top;spacingLeft=4;spacingRight=4;overflow=hidden;rotatable=0;points=[[0,0.5],[1,0.5]];portConstraint=eastwest;" vertex="1" parent="AXPwxBaqXlATPKNAY8n4-95">
          <mxGeometry y="466.7826086956522" width="580" height="27" as="geometry" />
        </mxCell>
        <mxCell id="AXPwxBaqXlATPKNAY8n4-114" value="+setUbicacion(ubicacion : String)" style="text;strokeColor=none;fillColor=none;align=left;verticalAlign=top;spacingLeft=4;spacingRight=4;overflow=hidden;rotatable=0;points=[[0,0.5],[1,0.5]];portConstraint=eastwest;" vertex="1" parent="AXPwxBaqXlATPKNAY8n4-95">
          <mxGeometry y="493.7826086956522" width="580" height="27" as="geometry" />
        </mxCell>
        <mxCell id="AXPwxBaqXlATPKNAY8n4-115" value="+setFecha(fecha : LocalDate)" style="text;strokeColor=none;fillColor=none;align=left;verticalAlign=top;spacingLeft=4;spacingRight=4;overflow=hidden;rotatable=0;points=[[0,0.5],[1,0.5]];portConstraint=eastwest;" vertex="1" parent="AXPwxBaqXlATPKNAY8n4-95">
          <mxGeometry y="520.7826086956522" width="580" height="27" as="geometry" />
        </mxCell>
        <mxCell id="AXPwxBaqXlATPKNAY8n4-116" value="+toString()" style="text;strokeColor=none;fillColor=none;align=left;verticalAlign=top;spacingLeft=4;spacingRight=4;overflow=hidden;rotatable=0;points=[[0,0.5],[1,0.5]];portConstraint=eastwest;" vertex="1" parent="AXPwxBaqXlATPKNAY8n4-95">
          <mxGeometry y="547.7826086956522" width="580" height="27" as="geometry" />
        </mxCell>
        <mxCell id="AXPwxBaqXlATPKNAY8n4-117" value="+compareTo(otroEvento : Evento)" style="text;strokeColor=none;fillColor=none;align=left;verticalAlign=top;spacingLeft=4;spacingRight=4;overflow=hidden;rotatable=0;points=[[0,0.5],[1,0.5]];portConstraint=eastwest;" vertex="1" parent="AXPwxBaqXlATPKNAY8n4-95">
          <mxGeometry y="574.7826086956522" width="580" height="27" as="geometry" />
        </mxCell>
        <mxCell id="AXPwxBaqXlATPKNAY8n4-118" value="+fromString(linea : String)" style="text;strokeColor=none;fillColor=none;align=left;verticalAlign=top;spacingLeft=4;spacingRight=4;overflow=hidden;rotatable=0;points=[[0,0.5],[1,0.5]];portConstraint=eastwest;" vertex="1" parent="AXPwxBaqXlATPKNAY8n4-95">
          <mxGeometry y="601.7826086956522" width="580" height="27" as="geometry" />
        </mxCell>
        <mxCell id="AXPwxBaqXlATPKNAY8n4-119" value="Asistente" style="swimlane;fontStyle=1;align=center;verticalAlign=top;childLayout=stackLayout;horizontal=1;startSize=27.36842105263158;horizontalStack=0;resizeParent=1;resizeParentMax=0;resizeLast=0;collapsible=0;marginBottom=0;" vertex="1" parent="WIyWlLk6GJQsqaUBKTNV-1">
          <mxGeometry x="671" y="-1090" width="400" height="521.3684210526316" as="geometry" />
        </mxCell>
        <mxCell id="AXPwxBaqXlATPKNAY8n4-120" value="-id : int" style="text;strokeColor=none;fillColor=none;align=left;verticalAlign=top;spacingLeft=4;spacingRight=4;overflow=hidden;rotatable=0;points=[[0,0.5],[1,0.5]];portConstraint=eastwest;" vertex="1" parent="AXPwxBaqXlATPKNAY8n4-119">
          <mxGeometry y="27.36842105263158" width="400" height="27" as="geometry" />
        </mxCell>
        <mxCell id="AXPwxBaqXlATPKNAY8n4-121" value="-nombre : String" style="text;strokeColor=none;fillColor=none;align=left;verticalAlign=top;spacingLeft=4;spacingRight=4;overflow=hidden;rotatable=0;points=[[0,0.5],[1,0.5]];portConstraint=eastwest;" vertex="1" parent="AXPwxBaqXlATPKNAY8n4-119">
          <mxGeometry y="54.368421052631575" width="400" height="27" as="geometry" />
        </mxCell>
        <mxCell id="AXPwxBaqXlATPKNAY8n4-122" value="-apellido : String" style="text;strokeColor=none;fillColor=none;align=left;verticalAlign=top;spacingLeft=4;spacingRight=4;overflow=hidden;rotatable=0;points=[[0,0.5],[1,0.5]];portConstraint=eastwest;" vertex="1" parent="AXPwxBaqXlATPKNAY8n4-119">
          <mxGeometry y="81.36842105263158" width="400" height="27" as="geometry" />
        </mxCell>
        <mxCell id="AXPwxBaqXlATPKNAY8n4-123" value="-email : String" style="text;strokeColor=none;fillColor=none;align=left;verticalAlign=top;spacingLeft=4;spacingRight=4;overflow=hidden;rotatable=0;points=[[0,0.5],[1,0.5]];portConstraint=eastwest;" vertex="1" parent="AXPwxBaqXlATPKNAY8n4-119">
          <mxGeometry y="108.36842105263158" width="400" height="27" as="geometry" />
        </mxCell>
        <mxCell id="AXPwxBaqXlATPKNAY8n4-124" style="line;strokeWidth=1;fillColor=none;align=left;verticalAlign=middle;spacingTop=-1;spacingLeft=3;spacingRight=3;rotatable=0;labelPosition=right;points=[];portConstraint=eastwest;strokeColor=inherit;" vertex="1" parent="AXPwxBaqXlATPKNAY8n4-119">
          <mxGeometry y="135.36842105263156" width="400" height="8" as="geometry" />
        </mxCell>
        <mxCell id="AXPwxBaqXlATPKNAY8n4-125" value="+ Asistente(id : int, nombre : String, apellido : String, email : String)" style="text;strokeColor=none;fillColor=none;align=left;verticalAlign=top;spacingLeft=4;spacingRight=4;overflow=hidden;rotatable=0;points=[[0,0.5],[1,0.5]];portConstraint=eastwest;" vertex="1" parent="AXPwxBaqXlATPKNAY8n4-119">
          <mxGeometry y="143.36842105263156" width="400" height="27" as="geometry" />
        </mxCell>
        <mxCell id="AXPwxBaqXlATPKNAY8n4-126" value="+getId()" style="text;strokeColor=none;fillColor=none;align=left;verticalAlign=top;spacingLeft=4;spacingRight=4;overflow=hidden;rotatable=0;points=[[0,0.5],[1,0.5]];portConstraint=eastwest;" vertex="1" parent="AXPwxBaqXlATPKNAY8n4-119">
          <mxGeometry y="170.36842105263156" width="400" height="27" as="geometry" />
        </mxCell>
        <mxCell id="AXPwxBaqXlATPKNAY8n4-128" value="+getNombre()" style="text;strokeColor=none;fillColor=none;align=left;verticalAlign=top;spacingLeft=4;spacingRight=4;overflow=hidden;rotatable=0;points=[[0,0.5],[1,0.5]];portConstraint=eastwest;" vertex="1" parent="AXPwxBaqXlATPKNAY8n4-119">
          <mxGeometry y="197.36842105263156" width="400" height="27" as="geometry" />
        </mxCell>
        <mxCell id="AXPwxBaqXlATPKNAY8n4-130" value="+getApellido()" style="text;strokeColor=none;fillColor=none;align=left;verticalAlign=top;spacingLeft=4;spacingRight=4;overflow=hidden;rotatable=0;points=[[0,0.5],[1,0.5]];portConstraint=eastwest;" vertex="1" parent="AXPwxBaqXlATPKNAY8n4-119">
          <mxGeometry y="224.36842105263156" width="400" height="27" as="geometry" />
        </mxCell>
        <mxCell id="AXPwxBaqXlATPKNAY8n4-132" value="+getEmail()" style="text;strokeColor=none;fillColor=none;align=left;verticalAlign=top;spacingLeft=4;spacingRight=4;overflow=hidden;rotatable=0;points=[[0,0.5],[1,0.5]];portConstraint=eastwest;" vertex="1" parent="AXPwxBaqXlATPKNAY8n4-119">
          <mxGeometry y="251.36842105263156" width="400" height="27" as="geometry" />
        </mxCell>
        <mxCell id="AXPwxBaqXlATPKNAY8n4-127" value="+setId(id : int)" style="text;strokeColor=none;fillColor=none;align=left;verticalAlign=top;spacingLeft=4;spacingRight=4;overflow=hidden;rotatable=0;points=[[0,0.5],[1,0.5]];portConstraint=eastwest;" vertex="1" parent="AXPwxBaqXlATPKNAY8n4-119">
          <mxGeometry y="278.36842105263156" width="400" height="27" as="geometry" />
        </mxCell>
        <mxCell id="AXPwxBaqXlATPKNAY8n4-129" value="+setNombre(nombre : String)" style="text;strokeColor=none;fillColor=none;align=left;verticalAlign=top;spacingLeft=4;spacingRight=4;overflow=hidden;rotatable=0;points=[[0,0.5],[1,0.5]];portConstraint=eastwest;" vertex="1" parent="AXPwxBaqXlATPKNAY8n4-119">
          <mxGeometry y="305.36842105263156" width="400" height="27" as="geometry" />
        </mxCell>
        <mxCell id="AXPwxBaqXlATPKNAY8n4-131" value="+setApellido(apellido : String)" style="text;strokeColor=none;fillColor=none;align=left;verticalAlign=top;spacingLeft=4;spacingRight=4;overflow=hidden;rotatable=0;points=[[0,0.5],[1,0.5]];portConstraint=eastwest;" vertex="1" parent="AXPwxBaqXlATPKNAY8n4-119">
          <mxGeometry y="332.36842105263156" width="400" height="27" as="geometry" />
        </mxCell>
        <mxCell id="AXPwxBaqXlATPKNAY8n4-133" value="+setEmail(email : String)" style="text;strokeColor=none;fillColor=none;align=left;verticalAlign=top;spacingLeft=4;spacingRight=4;overflow=hidden;rotatable=0;points=[[0,0.5],[1,0.5]];portConstraint=eastwest;" vertex="1" parent="AXPwxBaqXlATPKNAY8n4-119">
          <mxGeometry y="359.36842105263156" width="400" height="27" as="geometry" />
        </mxCell>
        <mxCell id="AXPwxBaqXlATPKNAY8n4-134" value="+toInvitadoList()" style="text;strokeColor=none;fillColor=none;align=left;verticalAlign=top;spacingLeft=4;spacingRight=4;overflow=hidden;rotatable=0;points=[[0,0.5],[1,0.5]];portConstraint=eastwest;" vertex="1" parent="AXPwxBaqXlATPKNAY8n4-119">
          <mxGeometry y="386.36842105263156" width="400" height="27" as="geometry" />
        </mxCell>
        <mxCell id="AXPwxBaqXlATPKNAY8n4-135" value="+toString()" style="text;strokeColor=none;fillColor=none;align=left;verticalAlign=top;spacingLeft=4;spacingRight=4;overflow=hidden;rotatable=0;points=[[0,0.5],[1,0.5]];portConstraint=eastwest;" vertex="1" parent="AXPwxBaqXlATPKNAY8n4-119">
          <mxGeometry y="413.36842105263156" width="400" height="27" as="geometry" />
        </mxCell>
        <mxCell id="AXPwxBaqXlATPKNAY8n4-136" value="+equals(Object)" style="text;strokeColor=none;fillColor=none;align=left;verticalAlign=top;spacingLeft=4;spacingRight=4;overflow=hidden;rotatable=0;points=[[0,0.5],[1,0.5]];portConstraint=eastwest;" vertex="1" parent="AXPwxBaqXlATPKNAY8n4-119">
          <mxGeometry y="440.36842105263156" width="400" height="27" as="geometry" />
        </mxCell>
        <mxCell id="AXPwxBaqXlATPKNAY8n4-137" value="+hashCode()" style="text;strokeColor=none;fillColor=none;align=left;verticalAlign=top;spacingLeft=4;spacingRight=4;overflow=hidden;rotatable=0;points=[[0,0.5],[1,0.5]];portConstraint=eastwest;" vertex="1" parent="AXPwxBaqXlATPKNAY8n4-119">
          <mxGeometry y="467.36842105263156" width="400" height="27" as="geometry" />
        </mxCell>
        <mxCell id="AXPwxBaqXlATPKNAY8n4-138" value="+fromString(linea : String)" style="text;strokeColor=none;fillColor=none;align=left;verticalAlign=top;spacingLeft=4;spacingRight=4;overflow=hidden;rotatable=0;points=[[0,0.5],[1,0.5]];portConstraint=eastwest;" vertex="1" parent="AXPwxBaqXlATPKNAY8n4-119">
          <mxGeometry y="494.36842105263156" width="400" height="27" as="geometry" />
        </mxCell>
        <mxCell id="AXPwxBaqXlATPKNAY8n4-327" style="edgeStyle=orthogonalEdgeStyle;rounded=0;orthogonalLoop=1;jettySize=auto;html=1;entryX=0.5;entryY=0;entryDx=0;entryDy=0;startArrow=open;startFill=0;endArrow=diamondThin;endFill=0;endSize=20;startSize=20;" edge="1" parent="WIyWlLk6GJQsqaUBKTNV-1" source="AXPwxBaqXlATPKNAY8n4-9" target="AXPwxBaqXlATPKNAY8n4-37">
          <mxGeometry relative="1" as="geometry" />
        </mxCell>
      </root>
    </mxGraphModel>
  </diagram>
</mxfile>
